<mxfile host="app.diagrams.net" modified="2020-10-28T12:40:52.321Z" agent="5.0 (Windows NT 10.0; Win64; x64) AppleWebKit/537.36 (KHTML, like Gecko) Chrome/85.0.4183.102 Safari/537.36" etag="2Wb2NPppse4t4fAj3WUv" version="13.8.5" type="github" pages="3">
  <diagram id="zkGor0KFy6qFDHZaksyz" name="Page-1">
    <mxGraphModel dx="1180" dy="669" grid="1" gridSize="10" guides="1" tooltips="1" connect="1" arrows="1" fold="1" page="1" pageScale="1" pageWidth="827" pageHeight="1169" math="0" shadow="0">
      <root>
        <mxCell id="0" />
        <mxCell id="1" parent="0" />
        <mxCell id="dcKnZ6bztnkocnLc-RD0-17" style="edgeStyle=none;rounded=0;orthogonalLoop=1;jettySize=auto;html=1;exitX=1;exitY=0.5;exitDx=0;exitDy=0;entryX=0;entryY=0.5;entryDx=0;entryDy=0;endArrow=none;endFill=0;strokeWidth=2;fontSize=17;" parent="1" source="dcKnZ6bztnkocnLc-RD0-1" target="dcKnZ6bztnkocnLc-RD0-7" edge="1">
          <mxGeometry relative="1" as="geometry" />
        </mxCell>
        <mxCell id="dcKnZ6bztnkocnLc-RD0-21" style="edgeStyle=none;rounded=0;orthogonalLoop=1;jettySize=auto;html=1;exitX=1;exitY=1;exitDx=0;exitDy=0;entryX=0;entryY=0.5;entryDx=0;entryDy=0;endArrow=none;endFill=0;strokeWidth=2;fontSize=17;fillColor=#dae8fc;strokeColor=#6c8ebf;" parent="1" source="dcKnZ6bztnkocnLc-RD0-1" target="dcKnZ6bztnkocnLc-RD0-3" edge="1">
          <mxGeometry relative="1" as="geometry" />
        </mxCell>
        <mxCell id="dcKnZ6bztnkocnLc-RD0-22" style="edgeStyle=none;rounded=0;orthogonalLoop=1;jettySize=auto;html=1;exitX=0.5;exitY=1;exitDx=0;exitDy=0;entryX=0.5;entryY=0;entryDx=0;entryDy=0;endArrow=none;endFill=0;strokeWidth=2;fontSize=17;fillColor=#dae8fc;strokeColor=#6c8ebf;" parent="1" source="dcKnZ6bztnkocnLc-RD0-1" target="dcKnZ6bztnkocnLc-RD0-5" edge="1">
          <mxGeometry relative="1" as="geometry" />
        </mxCell>
        <mxCell id="dcKnZ6bztnkocnLc-RD0-1" value="2" style="ellipse;whiteSpace=wrap;html=1;strokeWidth=2;fontSize=17;fillColor=#dae8fc;strokeColor=#6c8ebf;" parent="1" vertex="1">
          <mxGeometry x="80" y="80" width="30" height="30" as="geometry" />
        </mxCell>
        <mxCell id="dcKnZ6bztnkocnLc-RD0-23" style="edgeStyle=none;rounded=0;orthogonalLoop=1;jettySize=auto;html=1;exitX=0;exitY=0.5;exitDx=0;exitDy=0;entryX=1;entryY=0.5;entryDx=0;entryDy=0;endArrow=none;endFill=0;fillColor=#d5e8d4;strokeColor=#82b366;strokeWidth=2;fontSize=17;" parent="1" source="dcKnZ6bztnkocnLc-RD0-2" target="dcKnZ6bztnkocnLc-RD0-4" edge="1">
          <mxGeometry relative="1" as="geometry" />
        </mxCell>
        <mxCell id="dcKnZ6bztnkocnLc-RD0-2" value="10" style="ellipse;whiteSpace=wrap;html=1;fillColor=#d5e8d4;strokeColor=#82b366;strokeWidth=2;fontSize=17;" parent="1" vertex="1">
          <mxGeometry x="770" y="80" width="30" height="30" as="geometry" />
        </mxCell>
        <mxCell id="dcKnZ6bztnkocnLc-RD0-36" style="edgeStyle=none;rounded=0;orthogonalLoop=1;jettySize=auto;html=1;exitX=1;exitY=1;exitDx=0;exitDy=0;entryX=0;entryY=0.5;entryDx=0;entryDy=0;endArrow=none;endFill=0;strokeWidth=2;fontSize=17;" parent="1" source="dcKnZ6bztnkocnLc-RD0-3" target="dcKnZ6bztnkocnLc-RD0-8" edge="1">
          <mxGeometry relative="1" as="geometry" />
        </mxCell>
        <mxCell id="dcKnZ6bztnkocnLc-RD0-3" value="7" style="ellipse;whiteSpace=wrap;html=1;strokeWidth=2;fontSize=17;fillColor=#dae8fc;strokeColor=#6c8ebf;" parent="1" vertex="1">
          <mxGeometry x="150" y="160" width="30" height="30" as="geometry" />
        </mxCell>
        <mxCell id="dcKnZ6bztnkocnLc-RD0-25" style="edgeStyle=none;rounded=0;orthogonalLoop=1;jettySize=auto;html=1;exitX=0;exitY=1;exitDx=0;exitDy=0;entryX=0.5;entryY=0;entryDx=0;entryDy=0;endArrow=none;endFill=0;strokeWidth=2;fontSize=17;" parent="1" source="dcKnZ6bztnkocnLc-RD0-4" target="dcKnZ6bztnkocnLc-RD0-9" edge="1">
          <mxGeometry relative="1" as="geometry" />
        </mxCell>
        <mxCell id="dcKnZ6bztnkocnLc-RD0-4" value="9" style="ellipse;whiteSpace=wrap;html=1;fillColor=#d5e8d4;strokeColor=#82b366;strokeWidth=2;fontSize=17;" parent="1" vertex="1">
          <mxGeometry x="620" y="70" width="30" height="30" as="geometry" />
        </mxCell>
        <mxCell id="dcKnZ6bztnkocnLc-RD0-20" style="edgeStyle=none;rounded=0;orthogonalLoop=1;jettySize=auto;html=1;exitX=1;exitY=0.5;exitDx=0;exitDy=0;entryX=0;entryY=0.5;entryDx=0;entryDy=0;endArrow=none;endFill=0;strokeWidth=2;fontSize=17;fillColor=#dae8fc;strokeColor=#6c8ebf;" parent="1" source="dcKnZ6bztnkocnLc-RD0-5" target="dcKnZ6bztnkocnLc-RD0-3" edge="1">
          <mxGeometry relative="1" as="geometry" />
        </mxCell>
        <mxCell id="dcKnZ6bztnkocnLc-RD0-5" value="3" style="ellipse;whiteSpace=wrap;html=1;strokeWidth=2;fontSize=17;fillColor=#dae8fc;strokeColor=#6c8ebf;" parent="1" vertex="1">
          <mxGeometry x="70" y="170" width="30" height="30" as="geometry" />
        </mxCell>
        <mxCell id="dcKnZ6bztnkocnLc-RD0-16" style="rounded=0;orthogonalLoop=1;jettySize=auto;html=1;exitX=1;exitY=0;exitDx=0;exitDy=0;entryX=0;entryY=0.5;entryDx=0;entryDy=0;endArrow=none;endFill=0;strokeWidth=2;fontSize=17;" parent="1" source="dcKnZ6bztnkocnLc-RD0-6" target="dcKnZ6bztnkocnLc-RD0-1" edge="1">
          <mxGeometry relative="1" as="geometry" />
        </mxCell>
        <mxCell id="dcKnZ6bztnkocnLc-RD0-6" value="1" style="ellipse;whiteSpace=wrap;html=1;strokeWidth=2;fontSize=17;" parent="1" vertex="1">
          <mxGeometry x="10" y="110" width="30" height="30" as="geometry" />
        </mxCell>
        <mxCell id="dcKnZ6bztnkocnLc-RD0-18" style="edgeStyle=none;rounded=0;orthogonalLoop=1;jettySize=auto;html=1;exitX=1;exitY=1;exitDx=0;exitDy=0;entryX=0.5;entryY=0;entryDx=0;entryDy=0;endArrow=none;endFill=0;strokeWidth=2;fontSize=17;fillColor=#dae8fc;strokeColor=#6c8ebf;" parent="1" source="dcKnZ6bztnkocnLc-RD0-7" target="dcKnZ6bztnkocnLc-RD0-8" edge="1">
          <mxGeometry relative="1" as="geometry" />
        </mxCell>
        <mxCell id="dcKnZ6bztnkocnLc-RD0-33" style="edgeStyle=none;rounded=0;orthogonalLoop=1;jettySize=auto;html=1;exitX=1;exitY=0.5;exitDx=0;exitDy=0;entryX=0;entryY=0.5;entryDx=0;entryDy=0;endArrow=none;endFill=0;strokeWidth=2;fontSize=17;fillColor=#dae8fc;strokeColor=#6c8ebf;" parent="1" source="dcKnZ6bztnkocnLc-RD0-7" target="dcKnZ6bztnkocnLc-RD0-13" edge="1">
          <mxGeometry relative="1" as="geometry" />
        </mxCell>
        <mxCell id="dcKnZ6bztnkocnLc-RD0-7" value="6" style="ellipse;whiteSpace=wrap;html=1;strokeWidth=2;fontSize=17;fillColor=#dae8fc;strokeColor=#6c8ebf;" parent="1" vertex="1">
          <mxGeometry x="200" y="70" width="30" height="30" as="geometry" />
        </mxCell>
        <mxCell id="dcKnZ6bztnkocnLc-RD0-32" style="edgeStyle=none;rounded=0;orthogonalLoop=1;jettySize=auto;html=1;exitX=1;exitY=0.5;exitDx=0;exitDy=0;entryX=0;entryY=0.5;entryDx=0;entryDy=0;endArrow=none;endFill=0;strokeWidth=2;fontSize=17;" parent="1" source="dcKnZ6bztnkocnLc-RD0-8" target="dcKnZ6bztnkocnLc-RD0-12" edge="1">
          <mxGeometry relative="1" as="geometry" />
        </mxCell>
        <mxCell id="dcKnZ6bztnkocnLc-RD0-8" value="14" style="ellipse;whiteSpace=wrap;html=1;strokeWidth=2;fontSize=17;fillColor=#dae8fc;strokeColor=#6c8ebf;" parent="1" vertex="1">
          <mxGeometry x="240" y="190" width="30" height="30" as="geometry" />
        </mxCell>
        <mxCell id="dcKnZ6bztnkocnLc-RD0-39" style="edgeStyle=none;rounded=0;orthogonalLoop=1;jettySize=auto;html=1;exitX=1;exitY=0.5;exitDx=0;exitDy=0;entryX=0;entryY=0.5;entryDx=0;entryDy=0;endArrow=none;endFill=0;strokeWidth=2;fontSize=17;" parent="1" source="dcKnZ6bztnkocnLc-RD0-9" target="dcKnZ6bztnkocnLc-RD0-10" edge="1">
          <mxGeometry relative="1" as="geometry" />
        </mxCell>
        <mxCell id="dcKnZ6bztnkocnLc-RD0-9" value="13" style="ellipse;whiteSpace=wrap;html=1;strokeWidth=2;fontSize=17;fillColor=#d5e8d4;strokeColor=#82b366;" parent="1" vertex="1">
          <mxGeometry x="550" y="180" width="30" height="30" as="geometry" />
        </mxCell>
        <mxCell id="dcKnZ6bztnkocnLc-RD0-24" style="edgeStyle=none;rounded=0;orthogonalLoop=1;jettySize=auto;html=1;exitX=1;exitY=0;exitDx=0;exitDy=0;entryX=0;entryY=1;entryDx=0;entryDy=0;endArrow=none;endFill=0;fillColor=#d5e8d4;strokeColor=#82b366;strokeWidth=2;fontSize=17;" parent="1" source="dcKnZ6bztnkocnLc-RD0-10" target="dcKnZ6bztnkocnLc-RD0-2" edge="1">
          <mxGeometry relative="1" as="geometry" />
        </mxCell>
        <mxCell id="dcKnZ6bztnkocnLc-RD0-10" value="11" style="ellipse;whiteSpace=wrap;html=1;fillColor=#d5e8d4;strokeColor=#82b366;strokeWidth=2;fontSize=17;" parent="1" vertex="1">
          <mxGeometry x="710" y="140" width="30" height="30" as="geometry" />
        </mxCell>
        <mxCell id="dcKnZ6bztnkocnLc-RD0-28" style="edgeStyle=none;rounded=0;orthogonalLoop=1;jettySize=auto;html=1;exitX=1;exitY=0;exitDx=0;exitDy=0;endArrow=none;endFill=0;strokeWidth=2;fontSize=17;" parent="1" source="dcKnZ6bztnkocnLc-RD0-11" target="dcKnZ6bztnkocnLc-RD0-14" edge="1">
          <mxGeometry relative="1" as="geometry" />
        </mxCell>
        <mxCell id="dcKnZ6bztnkocnLc-RD0-29" style="edgeStyle=none;rounded=0;orthogonalLoop=1;jettySize=auto;html=1;exitX=1;exitY=1;exitDx=0;exitDy=0;entryX=0;entryY=0;entryDx=0;entryDy=0;endArrow=none;endFill=0;strokeWidth=2;fontSize=17;" parent="1" source="dcKnZ6bztnkocnLc-RD0-11" target="dcKnZ6bztnkocnLc-RD0-12" edge="1">
          <mxGeometry relative="1" as="geometry" />
        </mxCell>
        <mxCell id="dcKnZ6bztnkocnLc-RD0-11" value="5" style="ellipse;whiteSpace=wrap;html=1;strokeWidth=2;fontSize=17;" parent="1" vertex="1">
          <mxGeometry x="360" y="130" width="30" height="30" as="geometry" />
        </mxCell>
        <mxCell id="dcKnZ6bztnkocnLc-RD0-37" style="edgeStyle=none;rounded=0;orthogonalLoop=1;jettySize=auto;html=1;exitX=1;exitY=0.5;exitDx=0;exitDy=0;entryX=0;entryY=0.5;entryDx=0;entryDy=0;endArrow=none;endFill=0;strokeWidth=2;fontSize=17;fillColor=#d5e8d4;strokeColor=#82b366;" parent="1" source="dcKnZ6bztnkocnLc-RD0-12" target="dcKnZ6bztnkocnLc-RD0-9" edge="1">
          <mxGeometry relative="1" as="geometry" />
        </mxCell>
        <mxCell id="dcKnZ6bztnkocnLc-RD0-40" style="edgeStyle=none;rounded=0;orthogonalLoop=1;jettySize=auto;html=1;exitX=1;exitY=0;exitDx=0;exitDy=0;entryX=0;entryY=1;entryDx=0;entryDy=0;endArrow=none;endFill=0;strokeWidth=2;fontSize=17;" parent="1" source="dcKnZ6bztnkocnLc-RD0-12" target="dcKnZ6bztnkocnLc-RD0-4" edge="1">
          <mxGeometry relative="1" as="geometry" />
        </mxCell>
        <mxCell id="dcKnZ6bztnkocnLc-RD0-12" value="8" style="ellipse;whiteSpace=wrap;html=1;strokeWidth=2;fontSize=17;fillColor=#d5e8d4;strokeColor=#82b366;" parent="1" vertex="1">
          <mxGeometry x="399" y="190" width="30" height="30" as="geometry" />
        </mxCell>
        <mxCell id="dcKnZ6bztnkocnLc-RD0-30" style="edgeStyle=none;rounded=0;orthogonalLoop=1;jettySize=auto;html=1;exitX=1;exitY=0.5;exitDx=0;exitDy=0;entryX=0;entryY=0;entryDx=0;entryDy=0;endArrow=none;endFill=0;strokeWidth=2;fontSize=17;" parent="1" source="dcKnZ6bztnkocnLc-RD0-13" target="dcKnZ6bztnkocnLc-RD0-11" edge="1">
          <mxGeometry relative="1" as="geometry" />
        </mxCell>
        <mxCell id="dcKnZ6bztnkocnLc-RD0-31" style="edgeStyle=none;rounded=0;orthogonalLoop=1;jettySize=auto;html=1;exitX=0.5;exitY=1;exitDx=0;exitDy=0;entryX=1;entryY=0;entryDx=0;entryDy=0;endArrow=none;endFill=0;strokeWidth=2;fontSize=17;fillColor=#dae8fc;strokeColor=#6c8ebf;" parent="1" source="dcKnZ6bztnkocnLc-RD0-13" target="dcKnZ6bztnkocnLc-RD0-8" edge="1">
          <mxGeometry relative="1" as="geometry" />
        </mxCell>
        <mxCell id="dcKnZ6bztnkocnLc-RD0-13" value="4" style="ellipse;whiteSpace=wrap;html=1;strokeWidth=2;fontSize=17;fillColor=#dae8fc;strokeColor=#6c8ebf;" parent="1" vertex="1">
          <mxGeometry x="280" y="60" width="30" height="30" as="geometry" />
        </mxCell>
        <mxCell id="dcKnZ6bztnkocnLc-RD0-26" style="edgeStyle=none;rounded=0;orthogonalLoop=1;jettySize=auto;html=1;exitX=1;exitY=0.5;exitDx=0;exitDy=0;entryX=0;entryY=0.5;entryDx=0;entryDy=0;endArrow=none;endFill=0;strokeWidth=2;fontSize=17;" parent="1" source="dcKnZ6bztnkocnLc-RD0-14" target="dcKnZ6bztnkocnLc-RD0-4" edge="1">
          <mxGeometry relative="1" as="geometry" />
        </mxCell>
        <mxCell id="dcKnZ6bztnkocnLc-RD0-27" style="edgeStyle=none;rounded=0;orthogonalLoop=1;jettySize=auto;html=1;exitX=0.5;exitY=1;exitDx=0;exitDy=0;entryX=1;entryY=0;entryDx=0;entryDy=0;endArrow=none;endFill=0;strokeWidth=2;fontSize=17;fillColor=#d5e8d4;strokeColor=#82b366;" parent="1" source="dcKnZ6bztnkocnLc-RD0-14" target="dcKnZ6bztnkocnLc-RD0-12" edge="1">
          <mxGeometry relative="1" as="geometry" />
        </mxCell>
        <mxCell id="dcKnZ6bztnkocnLc-RD0-14" value="12" style="ellipse;whiteSpace=wrap;html=1;strokeWidth=2;fontSize=17;fillColor=#d5e8d4;strokeColor=#82b366;" parent="1" vertex="1">
          <mxGeometry x="460" y="70" width="30" height="30" as="geometry" />
        </mxCell>
        <mxCell id="dcKnZ6bztnkocnLc-RD0-48" style="edgeStyle=none;rounded=0;orthogonalLoop=1;jettySize=auto;html=1;exitX=0.5;exitY=1;exitDx=0;exitDy=0;endArrow=classic;endFill=1;strokeWidth=2;fontSize=17;startArrow=none;startFill=0;" parent="1" source="dcKnZ6bztnkocnLc-RD0-42" edge="1">
          <mxGeometry relative="1" as="geometry">
            <mxPoint x="193" y="267" as="targetPoint" />
          </mxGeometry>
        </mxCell>
        <mxCell id="dcKnZ6bztnkocnLc-RD0-42" value="" style="rounded=0;whiteSpace=wrap;html=1;strokeWidth=2;fontSize=17;fillColor=none;dashed=1;" parent="1" vertex="1">
          <mxGeometry x="60" y="70" width="130" height="140" as="geometry" />
        </mxCell>
        <mxCell id="dcKnZ6bztnkocnLc-RD0-43" style="edgeStyle=none;rounded=0;orthogonalLoop=1;jettySize=auto;html=1;exitX=0.25;exitY=1;exitDx=0;exitDy=0;endArrow=none;endFill=0;strokeWidth=2;fontSize=17;" parent="1" source="dcKnZ6bztnkocnLc-RD0-42" target="dcKnZ6bztnkocnLc-RD0-42" edge="1">
          <mxGeometry relative="1" as="geometry" />
        </mxCell>
        <mxCell id="dcKnZ6bztnkocnLc-RD0-49" style="edgeStyle=none;rounded=0;orthogonalLoop=1;jettySize=auto;html=1;exitX=0.5;exitY=1;exitDx=0;exitDy=0;entryX=0.5;entryY=0;entryDx=0;entryDy=0;startArrow=none;startFill=0;endArrow=classic;endFill=1;strokeWidth=2;fontSize=17;" parent="1" source="dcKnZ6bztnkocnLc-RD0-44" target="dcKnZ6bztnkocnLc-RD0-47" edge="1">
          <mxGeometry relative="1" as="geometry" />
        </mxCell>
        <mxCell id="dcKnZ6bztnkocnLc-RD0-44" value="" style="rounded=0;whiteSpace=wrap;html=1;strokeWidth=2;fontSize=17;fillColor=none;dashed=1;" parent="1" vertex="1">
          <mxGeometry x="190" y="55" width="130" height="175" as="geometry" />
        </mxCell>
        <mxCell id="dcKnZ6bztnkocnLc-RD0-51" style="edgeStyle=none;rounded=0;orthogonalLoop=1;jettySize=auto;html=1;exitX=0.5;exitY=1;exitDx=0;exitDy=0;entryX=0.5;entryY=0;entryDx=0;entryDy=0;startArrow=none;startFill=0;endArrow=classic;endFill=1;strokeWidth=2;fontSize=17;" parent="1" source="dcKnZ6bztnkocnLc-RD0-45" target="dcKnZ6bztnkocnLc-RD0-50" edge="1">
          <mxGeometry relative="1" as="geometry" />
        </mxCell>
        <mxCell id="dcKnZ6bztnkocnLc-RD0-45" value="" style="rounded=0;whiteSpace=wrap;html=1;strokeWidth=2;fontSize=17;fillColor=none;dashed=1;" parent="1" vertex="1">
          <mxGeometry x="390" y="60" width="200" height="175" as="geometry" />
        </mxCell>
        <mxCell id="dcKnZ6bztnkocnLc-RD0-52" style="edgeStyle=none;rounded=0;orthogonalLoop=1;jettySize=auto;html=1;exitX=0.5;exitY=1;exitDx=0;exitDy=0;startArrow=none;startFill=0;endArrow=classic;endFill=1;strokeWidth=2;fontSize=17;" parent="1" source="dcKnZ6bztnkocnLc-RD0-46" edge="1">
          <mxGeometry relative="1" as="geometry">
            <mxPoint x="610" y="270" as="targetPoint" />
          </mxGeometry>
        </mxCell>
        <mxCell id="dcKnZ6bztnkocnLc-RD0-46" value="" style="rounded=0;whiteSpace=wrap;html=1;strokeWidth=2;fontSize=17;fillColor=none;dashed=1;" parent="1" vertex="1">
          <mxGeometry x="620" y="60" width="190" height="120" as="geometry" />
        </mxCell>
        <mxCell id="dcKnZ6bztnkocnLc-RD0-47" value="闭三元组" style="text;html=1;strokeColor=none;fillColor=none;align=center;verticalAlign=middle;whiteSpace=wrap;rounded=0;dashed=1;fontSize=17;" parent="1" vertex="1">
          <mxGeometry x="160" y="270" width="80" height="20" as="geometry" />
        </mxCell>
        <mxCell id="dcKnZ6bztnkocnLc-RD0-50" value="开三元组" style="text;html=1;strokeColor=none;fillColor=none;align=center;verticalAlign=middle;whiteSpace=wrap;rounded=0;dashed=1;fontSize=17;" parent="1" vertex="1">
          <mxGeometry x="570" y="270" width="80" height="20" as="geometry" />
        </mxCell>
      </root>
    </mxGraphModel>
  </diagram>
  <diagram id="6TC3ZU0KQcGp2BVUAbJR" name="Page-2">
    <mxGraphModel dx="1180" dy="669" grid="1" gridSize="10" guides="1" tooltips="1" connect="1" arrows="1" fold="1" page="1" pageScale="1" pageWidth="827" pageHeight="1169" math="0" shadow="0">
      <root>
        <mxCell id="mUlnrt3okP6eEV1uF5tq-0" />
        <mxCell id="mUlnrt3okP6eEV1uF5tq-1" parent="mUlnrt3okP6eEV1uF5tq-0" />
        <mxCell id="mUlnrt3okP6eEV1uF5tq-7" style="edgeStyle=none;rounded=0;orthogonalLoop=1;jettySize=auto;html=1;exitX=1;exitY=0.5;exitDx=0;exitDy=0;entryX=-0.004;entryY=0.327;entryDx=0;entryDy=0;entryPerimeter=0;startArrow=none;startFill=0;endArrow=none;endFill=0;strokeWidth=2;fontSize=17;fillColor=#f8cecc;strokeColor=#b85450;" parent="mUlnrt3okP6eEV1uF5tq-1" source="mUlnrt3okP6eEV1uF5tq-2" target="mUlnrt3okP6eEV1uF5tq-4" edge="1">
          <mxGeometry relative="1" as="geometry" />
        </mxCell>
        <mxCell id="mUlnrt3okP6eEV1uF5tq-2" value="A" style="ellipse;whiteSpace=wrap;html=1;strokeWidth=2;fontSize=17;fillColor=#f8cecc;strokeColor=#b85450;" parent="mUlnrt3okP6eEV1uF5tq-1" vertex="1">
          <mxGeometry x="80" y="40" width="40" height="40" as="geometry" />
        </mxCell>
        <mxCell id="mUlnrt3okP6eEV1uF5tq-3" value="D" style="ellipse;whiteSpace=wrap;html=1;strokeWidth=2;fontSize=17;fillColor=#f8cecc;strokeColor=#b85450;" parent="mUlnrt3okP6eEV1uF5tq-1" vertex="1">
          <mxGeometry x="390" y="80" width="40" height="40" as="geometry" />
        </mxCell>
        <mxCell id="mUlnrt3okP6eEV1uF5tq-8" style="edgeStyle=none;rounded=0;orthogonalLoop=1;jettySize=auto;html=1;exitX=1;exitY=0;exitDx=0;exitDy=0;entryX=0.064;entryY=0.691;entryDx=0;entryDy=0;entryPerimeter=0;startArrow=none;startFill=0;endArrow=none;endFill=0;strokeWidth=2;fontSize=17;fillColor=#f8cecc;" parent="mUlnrt3okP6eEV1uF5tq-1" source="mUlnrt3okP6eEV1uF5tq-4" target="mUlnrt3okP6eEV1uF5tq-6" edge="1">
          <mxGeometry relative="1" as="geometry" />
        </mxCell>
        <mxCell id="mUlnrt3okP6eEV1uF5tq-12" style="edgeStyle=none;rounded=0;orthogonalLoop=1;jettySize=auto;html=1;exitX=1;exitY=1;exitDx=0;exitDy=0;entryX=0;entryY=0;entryDx=0;entryDy=0;startArrow=none;startFill=0;endArrow=none;endFill=0;strokeWidth=2;fontSize=17;fillColor=#f8cecc;strokeColor=#b85450;" parent="mUlnrt3okP6eEV1uF5tq-1" source="mUlnrt3okP6eEV1uF5tq-4" target="mUlnrt3okP6eEV1uF5tq-5" edge="1">
          <mxGeometry relative="1" as="geometry" />
        </mxCell>
        <mxCell id="mUlnrt3okP6eEV1uF5tq-4" value="B" style="ellipse;whiteSpace=wrap;html=1;strokeWidth=2;fontSize=17;fillColor=#f8cecc;strokeColor=#b85450;" parent="mUlnrt3okP6eEV1uF5tq-1" vertex="1">
          <mxGeometry x="180" y="60" width="40" height="40" as="geometry" />
        </mxCell>
        <mxCell id="mUlnrt3okP6eEV1uF5tq-10" style="edgeStyle=none;rounded=0;orthogonalLoop=1;jettySize=auto;html=1;exitX=1;exitY=0.5;exitDx=0;exitDy=0;entryX=-0.027;entryY=0.691;entryDx=0;entryDy=0;entryPerimeter=0;startArrow=none;startFill=0;endArrow=none;endFill=0;strokeWidth=2;fontSize=17;fillColor=#f8cecc;strokeColor=#b85450;" parent="mUlnrt3okP6eEV1uF5tq-1" source="mUlnrt3okP6eEV1uF5tq-5" target="mUlnrt3okP6eEV1uF5tq-3" edge="1">
          <mxGeometry relative="1" as="geometry" />
        </mxCell>
        <mxCell id="mUlnrt3okP6eEV1uF5tq-5" value="E" style="ellipse;whiteSpace=wrap;html=1;strokeWidth=2;fontSize=17;fillColor=#f8cecc;strokeColor=#b85450;" parent="mUlnrt3okP6eEV1uF5tq-1" vertex="1">
          <mxGeometry x="240" y="120" width="40" height="40" as="geometry" />
        </mxCell>
        <mxCell id="mUlnrt3okP6eEV1uF5tq-11" value="" style="edgeStyle=none;rounded=0;orthogonalLoop=1;jettySize=auto;html=1;startArrow=none;startFill=0;endArrow=none;endFill=0;strokeWidth=2;fontSize=17;fillColor=#f8cecc;" parent="mUlnrt3okP6eEV1uF5tq-1" source="mUlnrt3okP6eEV1uF5tq-6" target="mUlnrt3okP6eEV1uF5tq-5" edge="1">
          <mxGeometry relative="1" as="geometry" />
        </mxCell>
        <mxCell id="mUlnrt3okP6eEV1uF5tq-6" value="C" style="ellipse;whiteSpace=wrap;html=1;strokeWidth=2;fontSize=17;fillColor=#f8cecc;strokeColor=#b85450;" parent="mUlnrt3okP6eEV1uF5tq-1" vertex="1">
          <mxGeometry x="270" y="20" width="40" height="40" as="geometry" />
        </mxCell>
        <mxCell id="mUlnrt3okP6eEV1uF5tq-13" style="edgeStyle=none;rounded=0;orthogonalLoop=1;jettySize=auto;html=1;exitX=1;exitY=0.5;exitDx=0;exitDy=0;entryX=-0.004;entryY=0.327;entryDx=0;entryDy=0;entryPerimeter=0;startArrow=none;startFill=0;endArrow=classic;endFill=1;strokeWidth=2;fontSize=17;fillColor=#f8cecc;strokeColor=#b85450;" parent="mUlnrt3okP6eEV1uF5tq-1" source="mUlnrt3okP6eEV1uF5tq-14" target="mUlnrt3okP6eEV1uF5tq-18" edge="1">
          <mxGeometry relative="1" as="geometry" />
        </mxCell>
        <mxCell id="mUlnrt3okP6eEV1uF5tq-14" value="A" style="ellipse;whiteSpace=wrap;html=1;strokeWidth=2;fontSize=17;fillColor=#f8cecc;strokeColor=#b85450;" parent="mUlnrt3okP6eEV1uF5tq-1" vertex="1">
          <mxGeometry x="64" y="250" width="40" height="40" as="geometry" />
        </mxCell>
        <mxCell id="mUlnrt3okP6eEV1uF5tq-15" value="D" style="ellipse;whiteSpace=wrap;html=1;strokeWidth=2;fontSize=17;fillColor=#f8cecc;strokeColor=#b85450;" parent="mUlnrt3okP6eEV1uF5tq-1" vertex="1">
          <mxGeometry x="374" y="290" width="40" height="40" as="geometry" />
        </mxCell>
        <mxCell id="mUlnrt3okP6eEV1uF5tq-16" style="edgeStyle=none;rounded=0;orthogonalLoop=1;jettySize=auto;html=1;exitX=1;exitY=0;exitDx=0;exitDy=0;entryX=0.064;entryY=0.691;entryDx=0;entryDy=0;entryPerimeter=0;startArrow=none;startFill=0;endArrow=classic;endFill=1;strokeWidth=2;fontSize=17;fillColor=#f8cecc;strokeColor=#b85450;" parent="mUlnrt3okP6eEV1uF5tq-1" source="mUlnrt3okP6eEV1uF5tq-18" target="mUlnrt3okP6eEV1uF5tq-22" edge="1">
          <mxGeometry relative="1" as="geometry" />
        </mxCell>
        <mxCell id="mUlnrt3okP6eEV1uF5tq-17" style="edgeStyle=none;rounded=0;orthogonalLoop=1;jettySize=auto;html=1;exitX=1;exitY=1;exitDx=0;exitDy=0;entryX=0;entryY=0;entryDx=0;entryDy=0;startArrow=classic;startFill=1;endArrow=none;endFill=0;strokeWidth=2;fontSize=17;fillColor=#f8cecc;" parent="mUlnrt3okP6eEV1uF5tq-1" source="mUlnrt3okP6eEV1uF5tq-18" target="mUlnrt3okP6eEV1uF5tq-20" edge="1">
          <mxGeometry relative="1" as="geometry" />
        </mxCell>
        <mxCell id="mUlnrt3okP6eEV1uF5tq-18" value="B" style="ellipse;whiteSpace=wrap;html=1;strokeWidth=2;fontSize=17;fillColor=#f8cecc;strokeColor=#b85450;" parent="mUlnrt3okP6eEV1uF5tq-1" vertex="1">
          <mxGeometry x="164" y="270" width="40" height="40" as="geometry" />
        </mxCell>
        <mxCell id="mUlnrt3okP6eEV1uF5tq-19" style="edgeStyle=none;rounded=0;orthogonalLoop=1;jettySize=auto;html=1;exitX=1;exitY=0.5;exitDx=0;exitDy=0;entryX=-0.027;entryY=0.691;entryDx=0;entryDy=0;entryPerimeter=0;startArrow=none;startFill=0;endArrow=classic;endFill=1;strokeWidth=2;fontSize=17;fillColor=#f8cecc;strokeColor=#b85450;" parent="mUlnrt3okP6eEV1uF5tq-1" source="mUlnrt3okP6eEV1uF5tq-20" target="mUlnrt3okP6eEV1uF5tq-15" edge="1">
          <mxGeometry relative="1" as="geometry" />
        </mxCell>
        <mxCell id="mUlnrt3okP6eEV1uF5tq-20" value="E" style="ellipse;whiteSpace=wrap;html=1;strokeWidth=2;fontSize=17;fillColor=#f8cecc;strokeColor=#b85450;" parent="mUlnrt3okP6eEV1uF5tq-1" vertex="1">
          <mxGeometry x="224" y="330" width="40" height="40" as="geometry" />
        </mxCell>
        <mxCell id="mUlnrt3okP6eEV1uF5tq-21" value="" style="edgeStyle=none;rounded=0;orthogonalLoop=1;jettySize=auto;html=1;startArrow=none;startFill=0;endArrow=classic;endFill=1;strokeWidth=2;fontSize=17;fillColor=#f8cecc;strokeColor=#b85450;" parent="mUlnrt3okP6eEV1uF5tq-1" source="mUlnrt3okP6eEV1uF5tq-22" target="mUlnrt3okP6eEV1uF5tq-20" edge="1">
          <mxGeometry relative="1" as="geometry" />
        </mxCell>
        <mxCell id="mUlnrt3okP6eEV1uF5tq-22" value="C" style="ellipse;whiteSpace=wrap;html=1;strokeWidth=2;fontSize=17;fillColor=#f8cecc;strokeColor=#b85450;" parent="mUlnrt3okP6eEV1uF5tq-1" vertex="1">
          <mxGeometry x="254" y="230" width="40" height="40" as="geometry" />
        </mxCell>
      </root>
    </mxGraphModel>
  </diagram>
  <diagram id="fo2IeLdqHEBDY3n0Ft_c" name="Page-3">
    <mxGraphModel dx="1180" dy="669" grid="1" gridSize="10" guides="1" tooltips="1" connect="1" arrows="1" fold="1" page="1" pageScale="1" pageWidth="827" pageHeight="1169" math="0" shadow="0">
      <root>
        <mxCell id="C_Jgbi9Cd2hozdbQ83bv-0" />
        <mxCell id="C_Jgbi9Cd2hozdbQ83bv-1" parent="C_Jgbi9Cd2hozdbQ83bv-0" />
        <mxCell id="C_Jgbi9Cd2hozdbQ83bv-2" style="edgeStyle=none;rounded=0;orthogonalLoop=1;jettySize=auto;html=1;exitX=1;exitY=0.5;exitDx=0;exitDy=0;entryX=0;entryY=0.5;entryDx=0;entryDy=0;endArrow=none;endFill=0;strokeWidth=2;fontSize=17;" edge="1" parent="C_Jgbi9Cd2hozdbQ83bv-1" source="C_Jgbi9Cd2hozdbQ83bv-5" target="C_Jgbi9Cd2hozdbQ83bv-18">
          <mxGeometry relative="1" as="geometry" />
        </mxCell>
        <mxCell id="C_Jgbi9Cd2hozdbQ83bv-3" style="edgeStyle=none;rounded=0;orthogonalLoop=1;jettySize=auto;html=1;exitX=1;exitY=1;exitDx=0;exitDy=0;entryX=0;entryY=0.5;entryDx=0;entryDy=0;endArrow=none;endFill=0;strokeWidth=2;fontSize=17;fillColor=#dae8fc;strokeColor=#6c8ebf;" edge="1" parent="C_Jgbi9Cd2hozdbQ83bv-1" source="C_Jgbi9Cd2hozdbQ83bv-5" target="C_Jgbi9Cd2hozdbQ83bv-9">
          <mxGeometry relative="1" as="geometry" />
        </mxCell>
        <mxCell id="C_Jgbi9Cd2hozdbQ83bv-4" style="edgeStyle=none;rounded=0;orthogonalLoop=1;jettySize=auto;html=1;exitX=0.5;exitY=1;exitDx=0;exitDy=0;entryX=0.5;entryY=0;entryDx=0;entryDy=0;endArrow=none;endFill=0;strokeWidth=2;fontSize=17;fillColor=#dae8fc;strokeColor=#6c8ebf;" edge="1" parent="C_Jgbi9Cd2hozdbQ83bv-1" source="C_Jgbi9Cd2hozdbQ83bv-5" target="C_Jgbi9Cd2hozdbQ83bv-13">
          <mxGeometry relative="1" as="geometry" />
        </mxCell>
        <mxCell id="C_Jgbi9Cd2hozdbQ83bv-5" value="2" style="ellipse;whiteSpace=wrap;html=1;strokeWidth=2;fontSize=17;fillColor=#dae8fc;strokeColor=#6c8ebf;" vertex="1" parent="C_Jgbi9Cd2hozdbQ83bv-1">
          <mxGeometry x="80" y="80" width="30" height="30" as="geometry" />
        </mxCell>
        <mxCell id="C_Jgbi9Cd2hozdbQ83bv-6" style="edgeStyle=none;rounded=0;orthogonalLoop=1;jettySize=auto;html=1;exitX=0;exitY=0.5;exitDx=0;exitDy=0;entryX=1;entryY=0.5;entryDx=0;entryDy=0;endArrow=none;endFill=0;fillColor=#dae8fc;strokeColor=#6c8ebf;strokeWidth=2;fontSize=17;" edge="1" parent="C_Jgbi9Cd2hozdbQ83bv-1" source="C_Jgbi9Cd2hozdbQ83bv-7" target="C_Jgbi9Cd2hozdbQ83bv-11">
          <mxGeometry relative="1" as="geometry" />
        </mxCell>
        <mxCell id="C_Jgbi9Cd2hozdbQ83bv-7" value="10" style="ellipse;whiteSpace=wrap;html=1;fillColor=#dae8fc;strokeColor=#6c8ebf;strokeWidth=2;fontSize=17;" vertex="1" parent="C_Jgbi9Cd2hozdbQ83bv-1">
          <mxGeometry x="770" y="80" width="30" height="30" as="geometry" />
        </mxCell>
        <mxCell id="C_Jgbi9Cd2hozdbQ83bv-8" style="edgeStyle=none;rounded=0;orthogonalLoop=1;jettySize=auto;html=1;exitX=1;exitY=1;exitDx=0;exitDy=0;entryX=0;entryY=0.5;entryDx=0;entryDy=0;endArrow=none;endFill=0;strokeWidth=2;fontSize=17;" edge="1" parent="C_Jgbi9Cd2hozdbQ83bv-1" source="C_Jgbi9Cd2hozdbQ83bv-9" target="C_Jgbi9Cd2hozdbQ83bv-20">
          <mxGeometry relative="1" as="geometry" />
        </mxCell>
        <mxCell id="C_Jgbi9Cd2hozdbQ83bv-9" value="7" style="ellipse;whiteSpace=wrap;html=1;strokeWidth=2;fontSize=17;fillColor=#dae8fc;strokeColor=#6c8ebf;" vertex="1" parent="C_Jgbi9Cd2hozdbQ83bv-1">
          <mxGeometry x="150" y="160" width="30" height="30" as="geometry" />
        </mxCell>
        <mxCell id="C_Jgbi9Cd2hozdbQ83bv-10" style="edgeStyle=none;rounded=0;orthogonalLoop=1;jettySize=auto;html=1;exitX=0;exitY=1;exitDx=0;exitDy=0;entryX=0.5;entryY=0;entryDx=0;entryDy=0;endArrow=none;endFill=0;strokeWidth=2;fontSize=17;" edge="1" parent="C_Jgbi9Cd2hozdbQ83bv-1" source="C_Jgbi9Cd2hozdbQ83bv-11" target="C_Jgbi9Cd2hozdbQ83bv-22">
          <mxGeometry relative="1" as="geometry" />
        </mxCell>
        <mxCell id="C_Jgbi9Cd2hozdbQ83bv-48" style="edgeStyle=none;rounded=0;orthogonalLoop=1;jettySize=auto;html=1;exitX=1;exitY=1;exitDx=0;exitDy=0;entryX=0;entryY=0;entryDx=0;entryDy=0;startArrow=none;startFill=0;endArrow=none;endFill=0;strokeColor=#6c8ebf;strokeWidth=2;fontSize=17;fillColor=#dae8fc;" edge="1" parent="C_Jgbi9Cd2hozdbQ83bv-1" source="C_Jgbi9Cd2hozdbQ83bv-11" target="C_Jgbi9Cd2hozdbQ83bv-24">
          <mxGeometry relative="1" as="geometry" />
        </mxCell>
        <mxCell id="C_Jgbi9Cd2hozdbQ83bv-11" value="9" style="ellipse;whiteSpace=wrap;html=1;fillColor=#dae8fc;strokeColor=#6c8ebf;strokeWidth=2;fontSize=17;" vertex="1" parent="C_Jgbi9Cd2hozdbQ83bv-1">
          <mxGeometry x="620" y="70" width="30" height="30" as="geometry" />
        </mxCell>
        <mxCell id="C_Jgbi9Cd2hozdbQ83bv-12" style="edgeStyle=none;rounded=0;orthogonalLoop=1;jettySize=auto;html=1;exitX=1;exitY=0.5;exitDx=0;exitDy=0;entryX=0;entryY=0.5;entryDx=0;entryDy=0;endArrow=none;endFill=0;strokeWidth=2;fontSize=17;fillColor=#dae8fc;strokeColor=#6c8ebf;" edge="1" parent="C_Jgbi9Cd2hozdbQ83bv-1" source="C_Jgbi9Cd2hozdbQ83bv-13" target="C_Jgbi9Cd2hozdbQ83bv-9">
          <mxGeometry relative="1" as="geometry" />
        </mxCell>
        <mxCell id="C_Jgbi9Cd2hozdbQ83bv-13" value="3" style="ellipse;whiteSpace=wrap;html=1;strokeWidth=2;fontSize=17;fillColor=#dae8fc;strokeColor=#6c8ebf;" vertex="1" parent="C_Jgbi9Cd2hozdbQ83bv-1">
          <mxGeometry x="70" y="170" width="30" height="30" as="geometry" />
        </mxCell>
        <mxCell id="C_Jgbi9Cd2hozdbQ83bv-14" style="rounded=0;orthogonalLoop=1;jettySize=auto;html=1;exitX=1;exitY=0;exitDx=0;exitDy=0;entryX=0;entryY=0.5;entryDx=0;entryDy=0;endArrow=none;endFill=0;strokeWidth=2;fontSize=17;" edge="1" parent="C_Jgbi9Cd2hozdbQ83bv-1" source="C_Jgbi9Cd2hozdbQ83bv-15" target="C_Jgbi9Cd2hozdbQ83bv-5">
          <mxGeometry relative="1" as="geometry" />
        </mxCell>
        <mxCell id="C_Jgbi9Cd2hozdbQ83bv-15" value="1" style="ellipse;whiteSpace=wrap;html=1;strokeWidth=2;fontSize=17;" vertex="1" parent="C_Jgbi9Cd2hozdbQ83bv-1">
          <mxGeometry x="10" y="110" width="30" height="30" as="geometry" />
        </mxCell>
        <mxCell id="C_Jgbi9Cd2hozdbQ83bv-16" style="edgeStyle=none;rounded=0;orthogonalLoop=1;jettySize=auto;html=1;exitX=1;exitY=1;exitDx=0;exitDy=0;entryX=0.5;entryY=0;entryDx=0;entryDy=0;endArrow=none;endFill=0;strokeWidth=2;fontSize=17;fillColor=#dae8fc;strokeColor=#6c8ebf;" edge="1" parent="C_Jgbi9Cd2hozdbQ83bv-1" source="C_Jgbi9Cd2hozdbQ83bv-18" target="C_Jgbi9Cd2hozdbQ83bv-20">
          <mxGeometry relative="1" as="geometry" />
        </mxCell>
        <mxCell id="C_Jgbi9Cd2hozdbQ83bv-17" style="edgeStyle=none;rounded=0;orthogonalLoop=1;jettySize=auto;html=1;exitX=1;exitY=0.5;exitDx=0;exitDy=0;entryX=0;entryY=0.5;entryDx=0;entryDy=0;endArrow=none;endFill=0;strokeWidth=2;fontSize=17;fillColor=#dae8fc;strokeColor=#6c8ebf;" edge="1" parent="C_Jgbi9Cd2hozdbQ83bv-1" source="C_Jgbi9Cd2hozdbQ83bv-18" target="C_Jgbi9Cd2hozdbQ83bv-33">
          <mxGeometry relative="1" as="geometry" />
        </mxCell>
        <mxCell id="C_Jgbi9Cd2hozdbQ83bv-18" value="6" style="ellipse;whiteSpace=wrap;html=1;strokeWidth=2;fontSize=17;fillColor=#dae8fc;strokeColor=#6c8ebf;" vertex="1" parent="C_Jgbi9Cd2hozdbQ83bv-1">
          <mxGeometry x="200" y="70" width="30" height="30" as="geometry" />
        </mxCell>
        <mxCell id="C_Jgbi9Cd2hozdbQ83bv-19" style="edgeStyle=none;rounded=0;orthogonalLoop=1;jettySize=auto;html=1;exitX=1;exitY=0.5;exitDx=0;exitDy=0;entryX=0;entryY=0.5;entryDx=0;entryDy=0;endArrow=none;endFill=0;strokeWidth=2;fontSize=17;" edge="1" parent="C_Jgbi9Cd2hozdbQ83bv-1" source="C_Jgbi9Cd2hozdbQ83bv-20" target="C_Jgbi9Cd2hozdbQ83bv-30">
          <mxGeometry relative="1" as="geometry" />
        </mxCell>
        <mxCell id="C_Jgbi9Cd2hozdbQ83bv-20" value="14" style="ellipse;whiteSpace=wrap;html=1;strokeWidth=2;fontSize=17;fillColor=#dae8fc;strokeColor=#6c8ebf;" vertex="1" parent="C_Jgbi9Cd2hozdbQ83bv-1">
          <mxGeometry x="240" y="190" width="30" height="30" as="geometry" />
        </mxCell>
        <mxCell id="C_Jgbi9Cd2hozdbQ83bv-21" style="edgeStyle=none;rounded=0;orthogonalLoop=1;jettySize=auto;html=1;exitX=1;exitY=0.5;exitDx=0;exitDy=0;entryX=0;entryY=0.5;entryDx=0;entryDy=0;endArrow=none;endFill=0;strokeWidth=2;fontSize=17;" edge="1" parent="C_Jgbi9Cd2hozdbQ83bv-1" source="C_Jgbi9Cd2hozdbQ83bv-22" target="C_Jgbi9Cd2hozdbQ83bv-24">
          <mxGeometry relative="1" as="geometry" />
        </mxCell>
        <mxCell id="C_Jgbi9Cd2hozdbQ83bv-22" value="13" style="ellipse;whiteSpace=wrap;html=1;strokeWidth=2;fontSize=17;" vertex="1" parent="C_Jgbi9Cd2hozdbQ83bv-1">
          <mxGeometry x="550" y="180" width="30" height="30" as="geometry" />
        </mxCell>
        <mxCell id="C_Jgbi9Cd2hozdbQ83bv-23" style="edgeStyle=none;rounded=0;orthogonalLoop=1;jettySize=auto;html=1;exitX=1;exitY=0;exitDx=0;exitDy=0;entryX=0;entryY=1;entryDx=0;entryDy=0;endArrow=none;endFill=0;fillColor=#dae8fc;strokeColor=#6c8ebf;strokeWidth=2;fontSize=17;" edge="1" parent="C_Jgbi9Cd2hozdbQ83bv-1" source="C_Jgbi9Cd2hozdbQ83bv-24" target="C_Jgbi9Cd2hozdbQ83bv-7">
          <mxGeometry relative="1" as="geometry" />
        </mxCell>
        <mxCell id="C_Jgbi9Cd2hozdbQ83bv-24" value="11" style="ellipse;whiteSpace=wrap;html=1;fillColor=#dae8fc;strokeColor=#6c8ebf;strokeWidth=2;fontSize=17;" vertex="1" parent="C_Jgbi9Cd2hozdbQ83bv-1">
          <mxGeometry x="710" y="140" width="30" height="30" as="geometry" />
        </mxCell>
        <mxCell id="C_Jgbi9Cd2hozdbQ83bv-25" style="edgeStyle=none;rounded=0;orthogonalLoop=1;jettySize=auto;html=1;exitX=1;exitY=0;exitDx=0;exitDy=0;endArrow=none;endFill=0;strokeWidth=2;fontSize=17;fillColor=#dae8fc;strokeColor=#6c8ebf;" edge="1" parent="C_Jgbi9Cd2hozdbQ83bv-1" source="C_Jgbi9Cd2hozdbQ83bv-27" target="C_Jgbi9Cd2hozdbQ83bv-36">
          <mxGeometry relative="1" as="geometry" />
        </mxCell>
        <mxCell id="C_Jgbi9Cd2hozdbQ83bv-26" style="edgeStyle=none;rounded=0;orthogonalLoop=1;jettySize=auto;html=1;exitX=1;exitY=1;exitDx=0;exitDy=0;entryX=0;entryY=0;entryDx=0;entryDy=0;endArrow=none;endFill=0;strokeWidth=2;fontSize=17;fillColor=#dae8fc;strokeColor=#6c8ebf;" edge="1" parent="C_Jgbi9Cd2hozdbQ83bv-1" source="C_Jgbi9Cd2hozdbQ83bv-27" target="C_Jgbi9Cd2hozdbQ83bv-30">
          <mxGeometry relative="1" as="geometry" />
        </mxCell>
        <mxCell id="C_Jgbi9Cd2hozdbQ83bv-27" value="5" style="ellipse;whiteSpace=wrap;html=1;strokeWidth=2;fontSize=17;fillColor=#dae8fc;strokeColor=#6c8ebf;" vertex="1" parent="C_Jgbi9Cd2hozdbQ83bv-1">
          <mxGeometry x="360" y="130" width="30" height="30" as="geometry" />
        </mxCell>
        <mxCell id="C_Jgbi9Cd2hozdbQ83bv-28" style="edgeStyle=none;rounded=0;orthogonalLoop=1;jettySize=auto;html=1;exitX=1;exitY=0.5;exitDx=0;exitDy=0;entryX=0;entryY=0.5;entryDx=0;entryDy=0;endArrow=none;endFill=0;strokeWidth=2;fontSize=17;fillColor=#d5e8d4;" edge="1" parent="C_Jgbi9Cd2hozdbQ83bv-1" source="C_Jgbi9Cd2hozdbQ83bv-30" target="C_Jgbi9Cd2hozdbQ83bv-22">
          <mxGeometry relative="1" as="geometry" />
        </mxCell>
        <mxCell id="C_Jgbi9Cd2hozdbQ83bv-29" style="edgeStyle=none;rounded=0;orthogonalLoop=1;jettySize=auto;html=1;exitX=1;exitY=0;exitDx=0;exitDy=0;entryX=0;entryY=1;entryDx=0;entryDy=0;endArrow=none;endFill=0;strokeWidth=2;fontSize=17;" edge="1" parent="C_Jgbi9Cd2hozdbQ83bv-1" source="C_Jgbi9Cd2hozdbQ83bv-30" target="C_Jgbi9Cd2hozdbQ83bv-11">
          <mxGeometry relative="1" as="geometry" />
        </mxCell>
        <mxCell id="C_Jgbi9Cd2hozdbQ83bv-30" value="8" style="ellipse;whiteSpace=wrap;html=1;strokeWidth=2;fontSize=17;fillColor=#dae8fc;strokeColor=#6c8ebf;" vertex="1" parent="C_Jgbi9Cd2hozdbQ83bv-1">
          <mxGeometry x="399" y="190" width="30" height="30" as="geometry" />
        </mxCell>
        <mxCell id="C_Jgbi9Cd2hozdbQ83bv-31" style="edgeStyle=none;rounded=0;orthogonalLoop=1;jettySize=auto;html=1;exitX=1;exitY=0.5;exitDx=0;exitDy=0;entryX=0;entryY=0;entryDx=0;entryDy=0;endArrow=none;endFill=0;strokeWidth=2;fontSize=17;" edge="1" parent="C_Jgbi9Cd2hozdbQ83bv-1" source="C_Jgbi9Cd2hozdbQ83bv-33" target="C_Jgbi9Cd2hozdbQ83bv-27">
          <mxGeometry relative="1" as="geometry" />
        </mxCell>
        <mxCell id="C_Jgbi9Cd2hozdbQ83bv-32" style="edgeStyle=none;rounded=0;orthogonalLoop=1;jettySize=auto;html=1;exitX=0.5;exitY=1;exitDx=0;exitDy=0;entryX=1;entryY=0;entryDx=0;entryDy=0;endArrow=none;endFill=0;strokeWidth=2;fontSize=17;fillColor=#dae8fc;strokeColor=#6c8ebf;" edge="1" parent="C_Jgbi9Cd2hozdbQ83bv-1" source="C_Jgbi9Cd2hozdbQ83bv-33" target="C_Jgbi9Cd2hozdbQ83bv-20">
          <mxGeometry relative="1" as="geometry" />
        </mxCell>
        <mxCell id="C_Jgbi9Cd2hozdbQ83bv-33" value="4" style="ellipse;whiteSpace=wrap;html=1;strokeWidth=2;fontSize=17;fillColor=#dae8fc;strokeColor=#6c8ebf;" vertex="1" parent="C_Jgbi9Cd2hozdbQ83bv-1">
          <mxGeometry x="280" y="60" width="30" height="30" as="geometry" />
        </mxCell>
        <mxCell id="C_Jgbi9Cd2hozdbQ83bv-34" style="edgeStyle=none;rounded=0;orthogonalLoop=1;jettySize=auto;html=1;exitX=1;exitY=0.5;exitDx=0;exitDy=0;entryX=0;entryY=0.5;entryDx=0;entryDy=0;endArrow=none;endFill=0;strokeWidth=2;fontSize=17;" edge="1" parent="C_Jgbi9Cd2hozdbQ83bv-1" source="C_Jgbi9Cd2hozdbQ83bv-36" target="C_Jgbi9Cd2hozdbQ83bv-11">
          <mxGeometry relative="1" as="geometry" />
        </mxCell>
        <mxCell id="C_Jgbi9Cd2hozdbQ83bv-35" style="edgeStyle=none;rounded=0;orthogonalLoop=1;jettySize=auto;html=1;exitX=0.5;exitY=1;exitDx=0;exitDy=0;entryX=1;entryY=0;entryDx=0;entryDy=0;endArrow=none;endFill=0;strokeWidth=2;fontSize=17;fillColor=#dae8fc;strokeColor=#6c8ebf;" edge="1" parent="C_Jgbi9Cd2hozdbQ83bv-1" source="C_Jgbi9Cd2hozdbQ83bv-36" target="C_Jgbi9Cd2hozdbQ83bv-30">
          <mxGeometry relative="1" as="geometry" />
        </mxCell>
        <mxCell id="C_Jgbi9Cd2hozdbQ83bv-36" value="12" style="ellipse;whiteSpace=wrap;html=1;strokeWidth=2;fontSize=17;fillColor=#dae8fc;strokeColor=#6c8ebf;" vertex="1" parent="C_Jgbi9Cd2hozdbQ83bv-1">
          <mxGeometry x="460" y="70" width="30" height="30" as="geometry" />
        </mxCell>
        <mxCell id="C_Jgbi9Cd2hozdbQ83bv-39" style="edgeStyle=none;rounded=0;orthogonalLoop=1;jettySize=auto;html=1;exitX=0.25;exitY=1;exitDx=0;exitDy=0;endArrow=none;endFill=0;strokeWidth=2;fontSize=17;" edge="1" parent="C_Jgbi9Cd2hozdbQ83bv-1">
          <mxGeometry relative="1" as="geometry">
            <mxPoint x="92.5" y="210" as="sourcePoint" />
            <mxPoint x="92.5" y="210" as="targetPoint" />
          </mxGeometry>
        </mxCell>
      </root>
    </mxGraphModel>
  </diagram>
</mxfile>
